<svg xmlns="http://www.w3.org/2000/svg" width="148.049" height="48.443" xmlns:v="https://vecta.io/nano"><g fill-rule="evenodd"><path d="M5.133 0h137.784a5.27 5.27 0 0 1 3.626 1.441c.954.902 1.498 2.155 1.506 3.468v38.638a4.81 4.81 0 0 1-1.511 3.46 5.26 5.26 0 0 1-3.622 1.435H5.133a5.26 5.26 0 0 1-3.623-1.435A4.81 4.81 0 0 1 0 43.547V4.908c.009-1.313.553-2.565 1.507-3.467C2.487.514 3.784-.002 5.133 0z"/><path d="M36.05 19.149c8.641 5.191 9.021 4.113 0 9.545l-1.414.85-5.957-6.089 4.767-5.934 2.6 1.629zm-8.288 3.362L11.317 5.703c2.449-.437 14.571 7.069 21.014 11.126zm5.729 7.712l-1.411.856-3.958 2.383-3.97 2.395-3.97 2.383-3.969 2.384-2.59 1.568 14.244-17.719zM11.484 42.776c-.069-.048-.133-.104-.19-.165s-.117-.129-.166-.2-.094-.146-.13-.225a.9.9 0 0 1-.071-.257 1.02 1.02 0 0 1-.036-.272V7.103l16.071 16.434z" fill="#fff"/></g><path d="M54.984 30.239h-2.59V28.48h4.707v5.793l-.654.2a7.75 7.75 0 0 1-.906.177l-1.023.141c-.347.034-.696.05-1.045.048a8.18 8.18 0 0 1-2.71-.413 5.34 5.34 0 0 1-1.942-1.168c-.518-.505-.916-1.121-1.165-1.8a6.77 6.77 0 0 1-.381-2.3 7.3 7.3 0 0 1 .208-1.7 6.06 6.06 0 0 1 .607-1.5 5.82 5.82 0 0 1 .95-1.251c.383-.377.818-.698 1.291-.952a6.84 6.84 0 0 1 1.581-.6c.603-.146 1.222-.217 1.843-.213.557.002 1.113.041 1.664.118a7.26 7.26 0 0 1 1.283.307v1.77a10.08 10.08 0 0 0-2.745-.425 5.37 5.37 0 0 0-1.76.283 4.05 4.05 0 0 0-1.424.826 3.92 3.92 0 0 0-.939 1.345 4.46 4.46 0 0 0-.344 1.841 4.09 4.09 0 0 0 1.058 3.052 4.13 4.13 0 0 0 3.008 1.014l.748-.035c.232-.02.462-.056.689-.107zm10.318.237a3.75 3.75 0 0 0-.167-1.157 2.2 2.2 0 0 0-.427-.85 1.68 1.68 0 0 0-.666-.514 2.16 2.16 0 0 0-.844-.165 2.2 2.2 0 0 0-.831.165 1.72 1.72 0 0 0-.654.514 2.22 2.22 0 0 0-.429.85 3.8 3.8 0 0 0-.166 1.157 3.93 3.93 0 0 0 .166 1.167c.082.307.228.592.429.838a1.88 1.88 0 0 0 .666.514 2.07 2.07 0 0 0 1.676 0 1.74 1.74 0 0 0 .654-.514 2.23 2.23 0 0 0 .427-.838c.114-.379.17-.773.165-1.168zm2.116 0a4.96 4.96 0 0 1-.3 1.781 3.69 3.69 0 0 1-.844 1.38 3.5 3.5 0 0 1-1.318.884 4.55 4.55 0 0 1-1.736.319 4.64 4.64 0 0 1-1.77-.319c-.505-.19-.96-.492-1.331-.884a3.84 3.84 0 0 1-.833-1.38c-.197-.573-.294-1.175-.285-1.781a5.05 5.05 0 0 1 .3-1.781 3.92 3.92 0 0 1 .844-1.38 3.81 3.81 0 0 1 1.319-.886c.552-.219 1.141-.327 1.735-.319a4.65 4.65 0 0 1 1.771.319c.5.2.954.501 1.331.886.366.4.649.869.831 1.38a5.33 5.33 0 0 1 .293 1.781zm7.677 0a3.78 3.78 0 0 0-.166-1.157 2.22 2.22 0 0 0-.429-.85 1.68 1.68 0 0 0-.666-.514 2.16 2.16 0 0 0-.843-.165 2.2 2.2 0 0 0-.833.165 1.74 1.74 0 0 0-.654.514 2.39 2.39 0 0 0-.439.85 4.15 4.15 0 0 0-.155 1.157 4.31 4.31 0 0 0 .155 1.167 2.43 2.43 0 0 0 .439.838 1.88 1.88 0 0 0 .666.514c.534.237 1.142.237 1.676 0a1.83 1.83 0 0 0 .654-.514c.201-.246.347-.531.429-.838a3.92 3.92 0 0 0 .166-1.168zm2.116 0a4.96 4.96 0 0 1-.3 1.781 3.69 3.69 0 0 1-.844 1.38 3.5 3.5 0 0 1-1.319.884c-.552.219-1.141.327-1.735.319a4.65 4.65 0 0 1-1.771-.319c-.505-.19-.96-.492-1.331-.884a3.85 3.85 0 0 1-.831-1.38 5.24 5.24 0 0 1-.286-1.781 5.05 5.05 0 0 1 .3-1.781c.356-1.034 1.146-1.862 2.163-2.266a4.54 4.54 0 0 1 1.736-.319 4.64 4.64 0 0 1 1.77.319 3.86 3.86 0 0 1 1.338.886c.363.402.646.871.833 1.38a5.33 5.33 0 0 1 .285 1.781zm7.251 4.37v-.424c0-.142.01-.283.025-.424h-.012c-.298.24-.63.435-.986.578a3.2 3.2 0 0 1-.648.2 3.74 3.74 0 0 1-.724.071c-.447-.002-.889-.082-1.308-.237a2.94 2.94 0 0 1-1.129-.743c-.354-.377-.626-.823-.8-1.31a5.4 5.4 0 0 1-.3-1.928c-.013-.669.089-1.335.3-1.97a4.65 4.65 0 0 1 .821-1.4 3.48 3.48 0 0 1 2.547-1.149 2.8 2.8 0 0 1 1.364.329 3.06 3.06 0 0 1 .987.815h.036l.083-.932h1.794v8.459a5.44 5.44 0 0 1-.119 1.251 3.62 3.62 0 0 1-.356.932 3.04 3.04 0 0 1-.7.815c-.293.244-.622.442-.974.589a6.07 6.07 0 0 1-1.213.343c-.458.082-.923.121-1.389.117a9.29 9.29 0 0 1-.809-.035 7.38 7.38 0 0 1-.749-.082l-.647-.128a4.4 4.4 0 0 1-.487-.141v-1.656a7.52 7.52 0 0 0 2.52.366 3.72 3.72 0 0 0 2.128-.514 1.79 1.79 0 0 0 .749-1.593zm-1.83-1.617a2.34 2.34 0 0 0 .583-.071 2.83 2.83 0 0 0 .51-.2 2.64 2.64 0 0 0 .415-.271c.12-.082.228-.181.321-.294v-3.724a3.1 3.1 0 0 0-.807-.643 2.28 2.28 0 0 0-1.036-.271c-.136.005-.272.02-.406.046a2.17 2.17 0 0 0-.427.166 1.51 1.51 0 0 0-.4.33 1.65 1.65 0 0 0-.345.506 3.19 3.19 0 0 0-.238.744 4.82 4.82 0 0 0-.095.991 5.25 5.25 0 0 0 .119 1.121 2.36 2.36 0 0 0 .368.837c.151.228.36.412.606.532.257.133.543.197.832.188zm6.193 1.4V22.211h2.056v12.412zm8.7-1.414a7.57 7.57 0 0 0 1.249-.118 11.31 11.31 0 0 0 1.308-.342v1.617a7.17 7.17 0 0 1-1.213.319 9 9 0 0 1-1.7.153 6.09 6.09 0 0 1-1.683-.224c-.512-.146-.988-.395-1.4-.733a3.74 3.74 0 0 1-.951-1.308c-.243-.624-.36-1.29-.345-1.959a5.6 5.6 0 0 1 .314-1.987 4.08 4.08 0 0 1 .892-1.4 3.57 3.57 0 0 1 1.26-.837 3.98 3.98 0 0 1 1.474-.284 4.26 4.26 0 0 1 1.473.248 2.76 2.76 0 0 1 1.154.756c.349.374.609.822.761 1.31a5.82 5.82 0 0 1 .273 1.928l-.023.72h-5.489c.021.344.109.681.259.991a1.83 1.83 0 0 0 .571.661 2.22 2.22 0 0 0 .808.377 4.49 4.49 0 0 0 1.01.118zm-.819-5.527a1.59 1.59 0 0 0-.69.143 1.68 1.68 0 0 0-.518.386 1.98 1.98 0 0 0-.344.566 2.71 2.71 0 0 0-.178.7h3.292a2.68 2.68 0 0 0-.094-.7c-.066-.205-.168-.396-.3-.566a1.42 1.42 0 0 0-.487-.386 1.5 1.5 0 0 0-.677-.143zm12.683 2.5c-.191 0-.381-.012-.572-.012l-.518-.035v4.483h-2.128V23.16h3.341a10.66 10.66 0 0 1 1.462.082 6.73 6.73 0 0 1 1.117.212 3.64 3.64 0 0 1 1.83 1.145 3.06 3.06 0 0 1 .647 2.005 3.28 3.28 0 0 1-.344 1.5 3.15 3.15 0 0 1-1.012 1.121 4.9 4.9 0 0 1-1.628.72 8.91 8.91 0 0 1-2.2.247zm-1.084-1.814c.15.024.301.04.452.048l.594.012a6.15 6.15 0 0 0 1.424-.141 2.63 2.63 0 0 0 .927-.378 1.51 1.51 0 0 0 .51-.59 1.79 1.79 0 0 0 .155-.756 1.4 1.4 0 0 0-1.047-1.451 3.53 3.53 0 0 0-.737-.153 9.86 9.86 0 0 0-1.094-.048H108.3zm8.326 6.248V22.211h2.057v12.412zm9.324-.886h-.036a4.01 4.01 0 0 1-.4.378c-.166.118-.356.237-.558.353a3.39 3.39 0 0 1-1.51.366 3.13 3.13 0 0 1-1.117-.189 2.42 2.42 0 0 1-.891-.531c-.253-.233-.452-.519-.583-.838a2.74 2.74 0 0 1-.213-1.1 2.8 2.8 0 0 1 .25-1.2c.16-.347.396-.655.689-.9.307-.258.663-.451 1.047-.567a4.55 4.55 0 0 1 1.366-.189 8.92 8.92 0 0 1 1 .059l.8.166v-.33a1.5 1.5 0 0 0-.1-.555c-.065-.185-.176-.351-.321-.483a1.49 1.49 0 0 0-.57-.33 2.64 2.64 0 0 0-.867-.129 5.65 5.65 0 0 0-1.249.141c-.457.101-.905.235-1.343.4v-1.573a7.1 7.1 0 0 1 1.343-.413c.488-.104.986-.16 1.485-.166a5.48 5.48 0 0 1 1.6.225 3.38 3.38 0 0 1 1.142.613 2.52 2.52 0 0 1 .7.92 2.89 2.89 0 0 1 .225 1.157v3.138l.013 1.414.035 1.05h-1.844zm-.166-2.654c-.19-.047-.417-.082-.667-.128-.258-.034-.518-.05-.778-.048a2.02 2.02 0 0 0-1.177.3c-.294.206-.46.55-.439.909a1.26 1.26 0 0 0 .094.483 1.01 1.01 0 0 0 .274.353c.116.09.247.158.388.2a1.54 1.54 0 0 0 .476.071 1.89 1.89 0 0 0 .583-.082 2.52 2.52 0 0 0 .511-.2 2.61 2.61 0 0 0 .415-.283 3.84 3.84 0 0 0 .31-.3zm3.293-4.765h2.182l1.26 3.008 1 2.537h.036l.916-2.383 1.294-3.162h2.229l-5.385 12.293h-2.032l1.926-4.447zM54.993 15.338h-3.851l-.868 2.064h-.75l3.2-7.373h.679l3.209 7.373h-.737zm-3.626-.531h3.4l-1.7-4.023zm8 1.77l1.906-4.649h.725l-2.353 5.474h-.572l-2.353-5.474h.712zm7.655.825a2.48 2.48 0 0 1-.142-.755c-.254.284-.572.505-.927.643a3.2 3.2 0 0 1-1.2.224c-.527.026-1.047-.128-1.475-.437-.354-.264-.561-.68-.558-1.121a1.41 1.41 0 0 1 .76-1.262c.658-.346 1.397-.509 2.14-.472h1.26v-.623a1.13 1.13 0 0 0-.417-.92 1.89 1.89 0 0 0-1.212-.343 2.01 2.01 0 0 0-1.2.33.93.93 0 0 0-.487.779l-.69-.012a1.33 1.33 0 0 1 .69-1.121 3 3 0 0 1 1.723-.483 2.66 2.66 0 0 1 1.651.46 1.57 1.57 0 0 1 .631 1.285v2.584c-.024.406.04.813.19 1.191v.059zm-2.187-.424a2.55 2.55 0 0 0 1.248-.3c.338-.17.617-.439.8-.771v-1.212H65.63a3.6 3.6 0 0 0-1.629.33c-.352.155-.58.502-.583.886a.95.95 0 0 0 .388.771 1.61 1.61 0 0 0 1.023.3zm5.361.424h-.693v-5.474h.69zm-.822-7.055a.4.4 0 0 1 .134-.295c.098-.086.227-.128.357-.118a.47.47 0 0 1 .344.118c.086.073.134.181.129.294a.36.36 0 0 1-.129.284.53.53 0 0 1-.344.117c-.129.005-.256-.036-.357-.117a.4.4 0 0 1-.129-.284zm3.5 7.055h-.7V9.627h.7zm5.871 0a2.48 2.48 0 0 1-.142-.755 2.4 2.4 0 0 1-.927.643 3.2 3.2 0 0 1-1.2.224 2.32 2.32 0 0 1-1.474-.437c-.354-.263-.562-.68-.559-1.121a1.41 1.41 0 0 1 .761-1.262 4.15 4.15 0 0 1 2.139-.472h1.26v-.623a1.13 1.13 0 0 0-.416-.92 1.87 1.87 0 0 0-1.212-.343 2.01 2.01 0 0 0-1.2.33c-.288.156-.472.452-.487.779l-.689-.012c.015-.469.277-.896.689-1.121a3.02 3.02 0 0 1 1.715-.483 2.66 2.66 0 0 1 1.652.46c.404.302.639.78.629 1.285v2.584a3 3 0 0 0 .19 1.191v.059zm-2.187-.424a2.55 2.55 0 0 0 1.248-.3 1.87 1.87 0 0 0 .8-.771v-1.212H77.35a3.6 3.6 0 0 0-1.628.33c-.352.155-.58.502-.583.886a.95.95 0 0 0 .388.771 1.61 1.61 0 0 0 1.022.3zm9.645-2.253a2.97 2.97 0 0 1-.654 2.03 2.21 2.21 0 0 1-1.748.754 2.37 2.37 0 0 1-1.984-.85l-.036.743h-.648V9.627h.691v3.085a2.3 2.3 0 0 1 1.96-.9 2.24 2.24 0 0 1 1.772.743 3.01 3.01 0 0 1 .647 2.064zm-.7-.107c.041-.595-.127-1.186-.475-1.671a1.69 1.69 0 0 0-1.368-.59 2.14 2.14 0 0 0-1.129.283c-.314.201-.558.493-.7.838v2.469c.347.687 1.076 1.094 1.843 1.028.52.029 1.022-.19 1.355-.59a2.7 2.7 0 0 0 .475-1.77zm3.026 2.784h-.7V9.627h.7zm4.326.107a3 3 0 0 1-1.45-.342 2.61 2.61 0 0 1-1.01-.956 2.71 2.71 0 0 1-.357-1.38v-.224a2.99 2.99 0 0 1 .345-1.428 2.66 2.66 0 0 1 .987-.991 2.6 2.6 0 0 1 1.356-.365 2.37 2.37 0 0 1 1.813.684 2.6 2.6 0 0 1 .677 1.864v.343h-4.484v.117a2.12 2.12 0 0 0 .149.841c.107.268.266.512.469.717a2.06 2.06 0 0 0 1.545.613 2.6 2.6 0 0 0 .987-.176 2.19 2.19 0 0 0 .777-.567l.439.283a2.67 2.67 0 0 1-2.233.968zm-.129-5.167a1.83 1.83 0 0 0-1.323.505c-.366.359-.595.835-.647 1.346h3.78v-.071a1.92 1.92 0 0 0-.518-1.285c-.339-.338-.805-.517-1.283-.495zm6.358 2.242a2.8 2.8 0 0 1 .357-1.414 2.41 2.41 0 0 1 .986-.991 2.99 2.99 0 0 1 1.462-.353c.754-.03 1.488.248 2.032.771a2.73 2.73 0 0 1 .785 2.041v.129a2.87 2.87 0 0 1-.356 1.428 2.4 2.4 0 0 1-.987.979c-.45.237-.953.355-1.462.342a2.67 2.67 0 0 1-2.817-2.8zm.7.176a2.3 2.3 0 0 0 .583 1.617c.399.418.957.645 1.534.625a1.98 1.98 0 0 0 1.521-.625 2.38 2.38 0 0 0 .594-1.671v-.105a2.48 2.48 0 0 0-.273-1.157 1.97 1.97 0 0 0-.749-.8 2.03 2.03 0 0 0-1.105-.294 1.98 1.98 0 0 0-1.521.636 2.37 2.37 0 0 0-.583 1.663zm7.013-2.828l.023.932a2.43 2.43 0 0 1 .891-.771 2.53 2.53 0 0 1 1.166-.271 2.05 2.05 0 0 1 1.509.495 2.07 2.07 0 0 1 .5 1.5v3.586h-.7v-3.6a1.48 1.48 0 0 0-.357-1.086 1.53 1.53 0 0 0-1.118-.365c-.412-.008-.815.116-1.152.353a2.15 2.15 0 0 0-.725.943V17.4h-.7v-5.472zm9.865-1.4v1.4h1.294v.5h-1.294v3.657a1.04 1.04 0 0 0 .178.674c.173.165.41.247.648.224a4.41 4.41 0 0 0 .558-.048l.023.5a2.47 2.47 0 0 1-.737.082 1.38 1.38 0 0 1-1.045-.353 1.51 1.51 0 0 1-.321-1.075v-3.669h-1.163v-.5h1.166v-1.4zm3.441 2.315a2.36 2.36 0 0 1 .879-.754 2.6 2.6 0 0 1 1.166-.271 2.05 2.05 0 0 1 1.509.495c.363.412.544.953.5 1.5v3.586h-.689v-3.6a1.52 1.52 0 0 0-.357-1.086 1.54 1.54 0 0 0-1.129-.365 1.93 1.93 0 0 0-1.141.353 2.08 2.08 0 0 0-.737.943V17.4h-.689V9.627h.689zm8.287 4.661c-.505.011-1.004-.106-1.451-.342a2.46 2.46 0 0 1-1.009-.956 2.71 2.71 0 0 1-.357-1.38v-.224a3 3 0 0 1 .344-1.428 2.7 2.7 0 0 1 2.343-1.356 2.41 2.41 0 0 1 1.813.684 2.55 2.55 0 0 1 .678 1.864v.343h-4.492v.117a2.12 2.12 0 0 0 .149.841c.107.268.266.512.469.717a2.05 2.05 0 0 0 1.533.613c.337.007.673-.053.987-.176a2.23 2.23 0 0 0 .785-.567l.427.283a2.66 2.66 0 0 1-2.223.968zm-.13-5.167c-.49-.015-.965.167-1.319.506a2.14 2.14 0 0 0-.654 1.346h3.767v-.066a1.85 1.85 0 0 0-.518-1.285c-.341-.336-.805-.515-1.283-.495z" fill="#fff"/></svg>