<svg xmlns="http://www.w3.org/2000/svg" width="142.641" height="48.449" xmlns:v="https://vecta.io/nano"><path d="M4.944 0h132.75a4.97 4.97 0 0 1 3.5 1.441 4.9 4.9 0 0 1 1.451 3.467v38.638a4.9 4.9 0 0 1-1.452 3.464 4.97 4.97 0 0 1-3.491 1.439H4.944a4.97 4.97 0 0 1-3.493-1.441A4.9 4.9 0 0 1 0 43.54V4.907A4.9 4.9 0 0 1 1.451 1.44C2.381.519 3.636.002 4.944 0z" fill-rule="evenodd"/><g fill="#fff"><path d="M54.019 33.495h-5.063l-1.3 3.362h-2.6l5.3-13.249h2.235L57.9 36.857h-2.59zm-2.555-6.7l-1.26 3.47-.452 1.191h3.483l-.452-1.191-1.272-3.47zm12.561 2.112a2.6 2.6 0 0 0-1.178.3 3.52 3.52 0 0 0-.985.791v4.271a2.03 2.03 0 0 0 .357.342 3.13 3.13 0 0 0 .464.319 3.66 3.66 0 0 0 .582.224 2.36 2.36 0 0 0 .648.082c.338.008.673-.069.973-.224.289-.162.537-.388.725-.661a3.47 3.47 0 0 0 .429-1.015 5.75 5.75 0 0 0 .154-1.321 5.84 5.84 0 0 0-.154-1.356 3.2 3.2 0 0 0-.44-.968 1.9 1.9 0 0 0-.689-.578 1.84 1.84 0 0 0-.892-.2zm.321 8.2a3.5 3.5 0 0 1-1.425-.284 3.58 3.58 0 0 1-1.045-.7h-.048c.012.129.012.319.023.554l.013.79v4h-2.377V27.253h2.08l.107 1.075h.035a3.55 3.55 0 0 1 1.129-.945 3.35 3.35 0 0 1 1.6-.365c.531.001 1.057.097 1.554.283a3.8 3.8 0 0 1 1.355.9 4.56 4.56 0 0 1 .939 1.533c.253.7.374 1.441.357 2.185a6.48 6.48 0 0 1-.381 2.324 4.65 4.65 0 0 1-1 1.605 4 4 0 0 1-2.924 1.262zm10.922-8.2c-.41.007-.813.11-1.176.3a3.5 3.5 0 0 0-.987.791v4.271a2.03 2.03 0 0 0 .357.342 2.82 2.82 0 0 0 .475.319 3.25 3.25 0 0 0 .572.224 2.35 2.35 0 0 0 .647.082c.683.024 1.328-.311 1.7-.884a3.46 3.46 0 0 0 .423-1.023c.103-.433.154-.876.154-1.321a5.78 5.78 0 0 0-.154-1.361 3.2 3.2 0 0 0-.44-.968 1.89 1.89 0 0 0-.689-.578 1.84 1.84 0 0 0-.892-.2zm.321 8.2a3.49 3.49 0 0 1-1.425-.284c-.387-.169-.742-.407-1.046-.7h-.048c.013.129.013.319.025.554l.011.79v4h-2.377V27.253h2.079l.108 1.075h.036a3.53 3.53 0 0 1 1.129-.945 3.35 3.35 0 0 1 1.6-.365c.531.001 1.057.097 1.554.283a3.81 3.81 0 0 1 1.356.9 4.63 4.63 0 0 1 .939 1.533 6.05 6.05 0 0 1 .356 2.185 6.46 6.46 0 0 1-.381 2.324 4.59 4.59 0 0 1-1 1.605 3.98 3.98 0 0 1-1.377.955 4.16 4.16 0 0 1-1.546.307zm16.974-4.06c.014-.292-.074-.58-.25-.814-.18-.224-.413-.401-.677-.514-.307-.147-.631-.258-.964-.33l-1.116-.237-1.487-.4a4.46 4.46 0 0 1-1.249-.643 3 3 0 0 1-.854-1.05 3.46 3.46 0 0 1-.321-1.581 4.17 4.17 0 0 1 .379-1.829 3.64 3.64 0 0 1 1-1.3c.448-.344.957-.6 1.5-.754.625-.182 1.275-.269 1.926-.257.719 0 1.435.071 2.14.212.639.112 1.264.29 1.866.531v2.077a12.37 12.37 0 0 0-2-.59 9.9 9.9 0 0 0-1.794-.177 3.32 3.32 0 0 0-1.866.437 1.67 1.67 0 0 0-.439 2.147 1.8 1.8 0 0 0 .581.531 4.09 4.09 0 0 0 .856.355l1.01.235 1.617.413a5.05 5.05 0 0 1 1.366.643c.398.285.72.662.939 1.1a3.58 3.58 0 0 1 .357 1.711 4.1 4.1 0 0 1-.4 1.852 3.49 3.49 0 0 1-1.129 1.3 5.36 5.36 0 0 1-1.783.756 10.01 10.01 0 0 1-2.294.248 10.83 10.83 0 0 1-2.151-.213 6.01 6.01 0 0 1-1.747-.6V34.24c.619.274 1.264.484 1.926.626a9.54 9.54 0 0 0 1.942.189 7.3 7.3 0 0 0 1.143-.1c.348-.052.686-.159 1-.319.286-.145.531-.36.713-.625a1.58 1.58 0 0 0 .273-.968zm10.851 3.8a5.7 5.7 0 0 1-.951.189 8.36 8.36 0 0 1-1.036.071 4.52 4.52 0 0 1-2-.386 2.3 2.3 0 0 1-1.093-1.132 3.66 3.66 0 0 1-.227-1.428v-4.97h-1.808v-1.938h1.813v-2.677h2.367v2.677h2.8v1.936h-2.8v4.658a1.63 1.63 0 0 0 .167.826c.293.345.74.518 1.189.46a4.89 4.89 0 0 0 .82-.071 7.26 7.26 0 0 0 .76-.154zm8.629-4.79c.007-.455-.053-.908-.177-1.345a2.96 2.96 0 0 0-.5-.979 2.07 2.07 0 0 0-.777-.59c-.307-.133-.639-.201-.974-.2a2.39 2.39 0 0 0-.964.2 2.04 2.04 0 0 0-.76.59 2.95 2.95 0 0 0-.5.979 5.18 5.18 0 0 0 0 2.689c.101.356.271.689.5.979a2.07 2.07 0 0 0 .777.59c.62.268 1.322.268 1.942 0a2.04 2.04 0 0 0 .76-.59c.229-.29.399-.623.5-.979a4.63 4.63 0 0 0 .177-1.344zm2.449 0a5.99 5.99 0 0 1-.333 2.064 4.49 4.49 0 0 1-.975 1.594c-.43.45-.953.801-1.533 1.028a5.47 5.47 0 0 1-2.008.366 5.53 5.53 0 0 1-2.045-.366c-.583-.221-1.108-.573-1.534-1.028-.436-.455-.768-.998-.973-1.594a6.3 6.3 0 0 1-.333-2.064 5.91 5.91 0 0 1 .345-2.057 4.46 4.46 0 0 1 .974-1.6 4.61 4.61 0 0 1 1.533-1.028c.642-.243 1.324-.362 2.01-.353a5.58 5.58 0 0 1 2.047.357 4.37 4.37 0 0 1 1.533 1.028 4.62 4.62 0 0 1 .963 1.6 5.9 5.9 0 0 1 .332 2.057zm7.844-2.925h-.2a5.27 5.27 0 0 0-1.914.319 2.6 2.6 0 0 0-1.272.978v6.427h-2.371v-9.6h1.962l.225 1.333h.036c.277-.48.674-.878 1.153-1.157a3.61 3.61 0 0 1 1.771-.413 4.79 4.79 0 0 1 .618.035zm6.4 6.087a7.85 7.85 0 0 0 1.438-.141 10.56 10.56 0 0 0 1.509-.386v1.864a7 7 0 0 1-1.4.378 10.7 10.7 0 0 1-1.973.177 7.1 7.1 0 0 1-1.949-.271 4.14 4.14 0 0 1-1.617-.838 4.05 4.05 0 0 1-1.093-1.522 5.59 5.59 0 0 1-.4-2.253 6.14 6.14 0 0 1 .381-2.289 4.65 4.65 0 0 1 1.01-1.629 4.07 4.07 0 0 1 1.473-.968c.542-.21 1.119-.318 1.7-.317a4.94 4.94 0 0 1 1.7.271 3.47 3.47 0 0 1 1.343.873 4.15 4.15 0 0 1 .881 1.522 7.24 7.24 0 0 1 .308 2.219l-.023.837h-6.345a2.94 2.94 0 0 0 .3 1.145 2.27 2.27 0 0 0 .654.771 2.51 2.51 0 0 0 .939.425 4.67 4.67 0 0 0 1.177.141zm-.957-6.372a1.97 1.97 0 0 0-.808.154 2.01 2.01 0 0 0-.594.449c-.176.191-.312.416-.4.661a2.94 2.94 0 0 0-.2.8h3.8a2.47 2.47 0 0 0-.119-.8 1.99 1.99 0 0 0-.332-.661 1.85 1.85 0 0 0-.558-.449 1.82 1.82 0 0 0-.789-.154zM45.665 17.815V10.43h2.367a4.13 4.13 0 0 1 1.866.413 3.13 3.13 0 0 1 1.3 1.18c.312.533.473 1.141.464 1.758v.684a3.32 3.32 0 0 1-.464 1.747 2.98 2.98 0 0 1-1.3 1.18 4.12 4.12 0 0 1-1.913.424zm.724-6.855v6.324h1.606a2.94 2.94 0 0 0 2.137-.778 2.77 2.77 0 0 0 .808-2.089v-.645a2.69 2.69 0 0 0-.8-2.041c-.568-.528-1.325-.806-2.1-.771zm6.538 4.023a2.85 2.85 0 0 1 .344-1.411 2.51 2.51 0 0 1 1-.991 2.96 2.96 0 0 1 1.451-.355c.758-.032 1.497.246 2.045.771.532.542.814 1.282.777 2.041v.129c.008.499-.115.991-.357 1.427a2.3 2.3 0 0 1-.986.979c-.45.238-.953.355-1.462.342-.756.045-1.495-.236-2.032-.771s-.819-1.273-.777-2.029zm.689.177c-.023.594.186 1.174.583 1.616a2.19 2.19 0 0 0 3.066 0 2.37 2.37 0 0 0 .583-1.663v-.118a2.5 2.5 0 0 0-.274-1.157 1.96 1.96 0 0 0-.749-.8 2.03 2.03 0 0 0-1.105-.3 1.94 1.94 0 0 0-1.51.643c-.404.457-.617 1.053-.594 1.663zm7.869 1.392l.106.472.13-.495 1.511-4.2h.594l1.5 4.165.166.578.13-.542 1.3-4.2h.712l-1.829 5.486h-.591l-1.617-4.353-.072-.3-.071.307-1.593 4.342h-.594l-1.835-5.48h.724zm8.124-4.221l.025.932a2.47 2.47 0 0 1 .879-.771 2.62 2.62 0 0 1 1.177-.271c.547-.044 1.088.137 1.5.5.357.415.537.954.5 1.5v3.6h-.691v-3.616a1.48 1.48 0 0 0-.356-1.085c-.312-.268-.719-.399-1.129-.366a1.92 1.92 0 0 0-1.141.355c-.33.238-.586.565-.737.943v3.763h-.691v-5.483zm6.656 5.486h-.689v-7.788h.689zm1.51-2.828a2.83 2.83 0 0 1 .357-1.417 2.4 2.4 0 0 1 .985-.991 3 3 0 0 1 1.462-.355c.754-.03 1.488.248 2.033.771a2.73 2.73 0 0 1 .785 2.041v.134a2.87 2.87 0 0 1-.356 1.427 2.39 2.39 0 0 1-.987.979 2.97 2.97 0 0 1-1.462.342 2.67 2.67 0 0 1-2.817-2.8zm.7.177a2.29 2.29 0 0 0 .582 1.616 2.02 2.02 0 0 0 1.534.626c.574.022 1.129-.206 1.521-.626a2.37 2.37 0 0 0 .593-1.663v-.117a2.5 2.5 0 0 0-.274-1.157 1.95 1.95 0 0 0-.748-.8 2.03 2.03 0 0 0-1.106-.3c-.577-.018-1.132.217-1.521.643a2.37 2.37 0 0 0-.582 1.663zm10.327 2.654a2.41 2.41 0 0 1-.129-.771 2.51 2.51 0 0 1-.939.643 3.16 3.16 0 0 1-1.2.224 2.28 2.28 0 0 1-1.462-.436 1.35 1.35 0 0 1-.57-1.121c0-.534.301-1.022.778-1.262a4.14 4.14 0 0 1 2.127-.46h1.261v-.635a1.11 1.11 0 0 0-.416-.932 1.88 1.88 0 0 0-1.212-.342 2.11 2.11 0 0 0-1.2.33c-.286.156-.468.453-.477.779l-.7-.012c.023-.47.288-.894.7-1.121a2.95 2.95 0 0 1 1.711-.485 2.7 2.7 0 0 1 1.664.46c.406.3.638.781.619 1.285v2.583c-.022.407.046.814.2 1.192v.071zm-2.186-.424a2.57 2.57 0 0 0 1.249-.31c.345-.165.626-.439.8-.779v-1.213h-1.233a3.64 3.64 0 0 0-1.641.33c-.35.164-.576.513-.583.9a.94.94 0 0 0 .1.432.95.95 0 0 0 .287.339 1.64 1.64 0 0 0 1.022.307zm4.314-2.371a2.96 2.96 0 0 1 .654-2.03 2.51 2.51 0 0 1 3.726.114v-3.083H96v7.787h-.654l-.025-.731a2.36 2.36 0 0 1-1.96.825 2.22 2.22 0 0 1-1.76-.754 3.06 3.06 0 0 1-.666-2.064zm.7.105a2.58 2.58 0 0 0 .487 1.652c.328.409.832.637 1.356.614.752.059 1.469-.329 1.83-.991v-2.569a1.86 1.86 0 0 0-1.813-1.075 1.68 1.68 0 0 0-1.368.6 2.79 2.79 0 0 0-.486 1.77zm8.713-.141c-.004-.494.115-.981.348-1.417a2.51 2.51 0 0 1 1-.991 2.96 2.96 0 0 1 1.45-.355c.758-.032 1.497.246 2.045.771.532.542.814 1.282.777 2.041v.134a2.97 2.97 0 0 1-.345 1.427 2.4 2.4 0 0 1-1 .979 2.95 2.95 0 0 1-1.449.342 2.66 2.66 0 0 1-2.822-2.8zm.69.177a2.3 2.3 0 0 0 .593 1.616c.396.422.956.651 1.534.626a2.01 2.01 0 0 0 1.52-.626c.401-.459.61-1.054.583-1.663v-.117a2.37 2.37 0 0 0-.273-1.157 1.96 1.96 0 0 0-.749-.8c-.332-.204-.716-.308-1.106-.3-.573-.017-1.125.218-1.509.643a2.37 2.37 0 0 0-.593 1.663zm7.031-2.835l.025.932c.224-.326.527-.591.879-.771a2.57 2.57 0 0 1 1.164-.27c.55-.043 1.094.137 1.51.5a2.04 2.04 0 0 1 .5 1.5v3.6h-.69v-3.617a1.47 1.47 0 0 0-.356-1.085c-.313-.268-.719-.399-1.129-.366a1.92 1.92 0 0 0-1.141.355c-.33.238-.586.565-.737.943v3.763h-.691v-5.483zm9.855-1.4v1.4h1.313v.495h-1.31v3.658c-.02.243.047.486.19.684a.81.81 0 0 0 .63.225 5.21 5.21 0 0 0 .571-.059l.023.495a2.51 2.51 0 0 1-.749.082c-.38.035-.756-.093-1.035-.353a1.56 1.56 0 0 1-.333-1.073v-3.661h-1.152v-.492h1.152v-1.407zm3.447 2.337a2.2 2.2 0 0 1 .879-.771c.361-.182.761-.275 1.166-.271a2 2 0 0 1 1.5.5 2.1 2.1 0 0 1 .511 1.5v3.6h-.7v-3.621a1.48 1.48 0 0 0-.356-1.085 1.53 1.53 0 0 0-1.117-.366 1.93 1.93 0 0 0-1.153.355 2.13 2.13 0 0 0-.725.943v3.763h-.7v-7.786h.7zm8.271 4.648a2.98 2.98 0 0 1-1.45-.342 2.43 2.43 0 0 1-1-.955 2.62 2.62 0 0 1-.367-1.38v-.225a2.89 2.89 0 0 1 .356-1.427 2.6 2.6 0 0 1 .975-.991 2.75 2.75 0 0 1 1.366-.366c.674-.029 1.331.218 1.819.685a2.51 2.51 0 0 1 .666 1.864v.342h-4.493v.118c-.009.58.216 1.139.623 1.552a2.08 2.08 0 0 0 1.546.614 2.58 2.58 0 0 0 .987-.177 2.07 2.07 0 0 0 .777-.567l.44.284a2.7 2.7 0 0 1-2.235.967zm-.119-5.167a1.93 1.93 0 0 0-1.331.508 2.21 2.21 0 0 0-.654 1.345h3.78v-.071a1.86 1.86 0 0 0-.518-1.285 1.7 1.7 0 0 0-1.273-.5z"/><path d="M23.7 15.432c4.207.141 6.786-2.973 6.869-7.15-4.48 0-7.239 2.277-6.869 7.15zm13.514 15.915c-1.866-1.711-4-2.206-4.124-6.24a5.71 5.71 0 0 1 1.248-4.166 9.07 9.07 0 0 0 1.942-2.5c-4.992-6.159-10.1-1.157-13.181-1.865a18.21 18.21 0 0 1-2.186-.779 6.28 6.28 0 0 0-2.674-.33c-9.414.626-9.854 14.324-2.639 22.653 3.458 3.975 4.766.991 8.533.771 3.662-.225 5.5 3.1 9-.257 1.26-1.2 3.684-4.85 4.077-7.28z" fill-rule="evenodd"/></g></svg>